<svg viewBox="0 0 440.72 141.23" xmlns="http://www.w3.org/2000/svg"><path d="m408.41 42.85h-2v-1.1h5v1.1h-1.95v6h-1.14zm4-1.1h1.77l1.66 5 1.64-5h1.78v7.08h-1.12v-5.69l-1.94 5.69h-.79l-1.91-5.69v5.69h-1.08zm-38.76-.22a5.56 5.56 0 0 0 -5.72 4.87c-3.84-3.94-9.43-6.1-15.85-6.1a28 28 0 0 0 -28.2 28.31v1.14a16 16 0 0 1 10.17 14.89 15.73 15.73 0 0 1 -.89 5.2 28.33 28.33 0 0 0 18.89 6.9 24.18 24.18 0 0 0 15.82-6.4 5.52 5.52 0 0 0 5.75 5.26c3.62 0 5.86-2.25 5.86-5.87v-42.42a5.45 5.45 0 0 0 -5.86-5.78m-21.62 42.78a15.73 15.73 0 1 1 15.71-15.72 15.73 15.73 0 0 1 -15.71 15.72m-81.56-42.78a5.55 5.55 0 0 0 -5.71 4.87c-3.84-3.94-9.43-6.1-15.85-6.1a28 28 0 0 0 -28.2 28.31c0 16 12.12 28.13 28.2 28.13a24.18 24.18 0 0 0 15.82-6.4 5.52 5.52 0 0 0 5.74 5.26c3.62 0 5.87-2.25 5.87-5.87v-42.42c0-3.51-2.3-5.78-5.87-5.78m-22.05 42.78a15.73 15.73 0 1 1 15.71-15.72 15.73 15.73 0 0 1 -15.71 15.72m-177.2-63.71a5.45 5.45 0 0 0 -5.86 5.78v20.1c-3.69-4-9.22-6.18-15.71-6.18-15 0-28.19 13.23-28.19 28.31s13.18 28.13 28.19 28.13a24 24 0 0 0 16.2-6.83c.65 3.68 2.87 5.69 6.32 5.69a4.9 4.9 0 0 0 4.92-5.21v-64a5.52 5.52 0 0 0 -5.87-5.78m-21.68 63.7a15.73 15.73 0 1 1 15.71-15.72 15.73 15.73 0 0 1 -15.71 15.72m107.06-42.78c-3.75 0-5.68 1.76-6.17 5.67a24.06 24.06 0 0 0 -16.25-6.9c-15 0-28.2 13.19-28.2 28.22s13.18 28.22 28.2 28.22c6.78 0 12.15-2.08 15.59-6-.32 11.37-5.8 16.9-16.73 16.9a5.51 5.51 0 0 0 -5.87 5.87c0 3.74 2.28 5.88 6.25 5.88 20.81 0 28.19-15.15 28.19-28.13v-44.61a4.89 4.89 0 0 0 -5-5.12m-22.69 42.78a15.73 15.73 0 1 1 15.71-15.72 15.73 15.73 0 0 1 -15.71 15.72m261.67-43.18a5.65 5.65 0 0 0 -5.77 5.78l-.14 43a5.57 5.57 0 0 0 5.77 5.87c3.62 0 5.87-2.25 5.87-5.87l.14-43a5.51 5.51 0 0 0 -5.87-5.78m-303.4-.25a5.66 5.66 0 0 0 -5.78 5.78v43.07a5.57 5.57 0 0 0 5.78 5.87c3.62 0 5.86-2.25 5.86-5.87v-43.07a5.51 5.51 0 0 0 -5.86-5.78m85.53.15a5.65 5.65 0 0 0 -5.77 5.78v42.92a5.57 5.57 0 0 0 5.77 5.87c3.62 0 5.87-2.25 5.87-5.87v-42.92a5.51 5.51 0 0 0 -5.87-5.81m36.07 43.21c-3.82-.32-6.18-1.4-6.18-5.78v-24.78h3a5.59 5.59 0 0 0 5.78-5.77c0-3.57-2.27-5.88-5.78-5.88h-3v-15.52c0-3.62-2.25-5.87-5.87-5.87a5.57 5.57 0 0 0 -5.77 5.87v15.66c-2.81.43-4.54 2.6-4.54 5.74a5.56 5.56 0 0 0 4.54 5.72v24.95c0 10.84 5.83 17 16 17 4.21 0 6.72-2 6.72-5.4s-1.78-5.66-4.89-6m79.45-63.55a5.53 5.53 0 0 0 -5.77 5.78v63.35a5.57 5.57 0 0 0 5.77 5.87c3.62 0 5.87-2.25 5.87-5.87v-63.35c0-3.56-2.25-5.78-5.87-5.78m34 57.89a9 9 0 0 0 -.64-.85 11.34 11.34 0 0 0 -1.8-1.73c-.23-.17-.47-.34-.72-.5a10.93 10.93 0 0 0 -4.06-1.62 11.27 11.27 0 0 0 -1.85-.15 10.9 10.9 0 0 0 -5.29 1.36 8.33 8.33 0 0 0 -.9.55 11 11 0 0 0 0 18.24 10.3 10.3 0 0 0 .9.55 11 11 0 0 0 12.23-1.18 10.56 10.56 0 0 0 1.49-1.5 10.34 10.34 0 0 0 .64-.84 11.6 11.6 0 0 0 1-1.87 11 11 0 0 0 -1-10.43" fill="#2a2a2a"/><path d="m258.83 66.16a10.77 10.77 0 0 1 .28 2.43 10.13 10.13 0 0 1 -.11 1.41 9.61 9.61 0 0 1 -.25 1.32 10.43 10.43 0 0 1 -1 2.43 10.71 10.71 0 0 1 -20.13-5.11 10.21 10.21 0 0 1 .22-2.16 10.71 10.71 0 0 1 6.32-7.72 10.65 10.65 0 0 1 8.34 0 10.71 10.71 0 0 1 5.5 5.17 11.15 11.15 0 0 1 .8 2.23m-209.29-8.3a10.73 10.73 0 1 0 10.72 10.73 10.71 10.71 0 0 0 -10.72-10.73m306.66.84c-.32-.13-.65-.25-1-.36a11.39 11.39 0 0 0 -1.56-.35 9.69 9.69 0 0 0 -1.63-.13 10.85 10.85 0 0 0 -3.19.48c-.33.11-.66.23-1 .36a10.78 10.78 0 0 0 -6.33 7.72 11.09 11.09 0 0 0 -.21 2.17 10.72 10.72 0 0 0 3.13 7.58 11.78 11.78 0 0 0 1.62 1.31 11 11 0 0 0 2.8 1.35 10.94 10.94 0 0 0 4.82.36 11.41 11.41 0 0 0 1.56-.36 10.82 10.82 0 0 0 2.8-1.35 11.78 11.78 0 0 0 1.59-1.31 10.69 10.69 0 0 0 3.14-7.58 11.09 11.09 0 0 0 -.22-2.17 10.76 10.76 0 0 0 -6.33-7.72m-218.11 0a10.71 10.71 0 0 0 -14.66 7.72 10.37 10.37 0 0 0 -.22 2.17 10.72 10.72 0 1 0 21.43 0 11.09 11.09 0 0 0 -.22-2.17 10.73 10.73 0 0 0 -6.33-7.72" fill="#649a3d"/></svg>